PathFileType	4	(X/Y/Z)
DataRate	CameraRate	NumFrames	NumMarkers	Units	OrigDataRate	OrigDataStartFrame	OrigNumFrames	
	120.0	120.0	8	39	mm	120.0	92	104
Frame#	Time	midhip	hip_r	hip_l	knee_r	knee_l	ankle_r	ankle_l	midasis	asis_r	asis_l	psis_r	psis_l	epicondLat_r	epicondLat_l	epicondMed_r	epicondMed_l	malleolusLat_r	malleolusLat_l	malleolusMedv_r	malleolusMedv_l	heel_r	heel_l	sternalnotch	xyphoidprocess	neck	subclavicle_r	subclavicle_l	toe_r	toe_l	thighwand_r	thighwand_l	upperleg1_r	upperleg1_l	upperleg2_r	upperleg2_l	shankwand_r	shankwand_l	lowerleg1_r	lowerleg1_l
	X1	Y1	Z1	X2	Y2	Z2	X3	Y3	Z3	X4	Y4	Z4	X5	Y5	Z5	X6	Y6	Z6	X7	Y7	Z7	X8	Y8	Z8	X9	Y9	Z9	X10	Y10	Z10	X11	Y11	Z11	X12	Y12	Z12	X13	Y13	Z13	X14	Y14	Z14	X15	Y15	Z15	X16	Y16	Z16	X17	Y17	Z17	X18	Y18	Z18	X19	Y19	Z19	X20	Y20	Z20	X21	Y21	Z21	X22	Y22	Z22	X23	Y23	Z23	X24	Y24	Z24	X25	Y25	Z25	X26	Y26	Z26	X27	Y27	Z27	X28	Y28	Z28	X29	Y29	Z29	X30	Y30	Z30	X31	Y31	Z31	X32	Y32	Z32	X33	Y33	Z33	X34	Y34	Z34	X35	Y35	Z35	X36	Y36	Z36	X37	Y37	Z37	X38	Y38	Z38	X39	Y39	Z39

	92	0.76667	1479.263	905.957	-249.011	1466.380	880.704	-179.439	1474.163	883.191	-329.646	1443.320	470.292	-136.552	1433.999	460.435	-354.705	1406.918	69.325	-130.264	1383.817	71.239	-363.337	1565.502	961.272	-248.294	1559.347	959.305	-129.525	1571.656	963.238	-367.064	1378.946	1017.721	-224.697	1388.955	1015.515	-310.103	1452.446	476.001	-77.017	1442.258	463.169	-414.071	1424.776	478.750	-185.322	1430.260	465.653	-304.055	1391.433	71.342	-91.275	1365.152	74.452	-399.701	1415.923	82.879	-157.918	1390.514	83.322	-338.219	1342.755	42.598	-143.967	1317.600	42.909	-352.220	1483.710	1369.696	-238.306	1565.984	1206.193	-248.692	1371.670	1435.993	-242.564	1493.275	1358.394	-185.711	1508.720	1365.195	-292.773	1525.674	39.373	-99.311	1500.650	41.247	-401.736	1506.343	591.485	-12.642	1596.756	553.434	-342.396	1522.680	652.421	-84.126	1537.417	619.459	-383.043	1512.668	563.701	-99.650	1512.190	535.736	-386.747	1418.037	205.604	-6.464	1407.082	211.493	-479.937	1406.357	172.281	-79.549	1386.258	173.992	-410.915
	93	0.77500	1479.286	906.024	-249.064	1466.421	880.693	-179.544	1474.257	883.144	-329.749	1443.319	470.279	-136.553	1434.122	460.453	-354.789	1406.955	69.302	-130.298	1383.816	71.247	-363.350	1565.590	961.216	-248.384	1559.392	959.278	-129.571	1571.788	963.155	-367.197	1378.949	1017.752	-224.711	1388.890	1015.545	-310.072	1452.447	476.002	-77.020	1442.352	463.188	-414.159	1424.954	478.637	-185.279	1430.084	466.375	-302.990	1391.470	71.315	-91.309	1365.134	74.461	-399.704	1415.924	82.857	-157.961	1390.544	83.413	-338.235	1342.745	42.599	-143.947	1317.604	42.913	-352.232	1483.656	1369.718	-238.358	1565.844	1206.160	-248.548	1371.714	1436.015	-242.550	1493.172	1358.451	-185.790	1508.708	1365.160	-292.754	1525.688	39.401	-99.254	1500.666	41.243	-401.726	1506.484	591.446	-12.744	1596.809	553.399	-342.359	1522.665	652.403	-84.110	1537.411	619.386	-382.990	1512.780	563.723	-99.641	1511.927	536.005	-386.291	1418.034	205.606	-6.465	1407.090	211.484	-479.934	1406.446	172.281	-79.596	1386.296	173.940	-410.903
	94	0.78333	1479.207	905.985	-249.164	1466.485	880.689	-179.650	1474.369	883.100	-329.853	1443.323	470.264	-136.559	1434.228	460.472	-354.854	1406.984	69.299	-130.330	1383.820	71.240	-363.362	1565.691	961.177	-248.479	1559.452	959.269	-129.630	1571.929	963.084	-367.328	1378.964	1017.771	-224.724	1388.824	1015.577	-310.045	1452.451	475.999	-77.028	1442.432	463.205	-414.227	1425.138	478.459	-185.166	1429.867	466.790	-302.478	1391.499	71.308	-91.341	1365.122	74.456	-399.708	1415.915	82.815	-158.029	1390.565	83.372	-338.267	1342.739	42.595	-143.928	1317.609	42.916	-352.240	1483.645	1369.738	-238.382	1565.840	1206.172	-248.381	1371.716	1436.003	-242.559	1493.119	1358.513	-185.798	1508.738	1365.138	-292.754	1525.704	39.436	-99.204	1500.679	41.236	-401.718	1506.624	591.406	-12.836	1596.863	553.361	-342.313	1522.673	652.468	-84.192	1537.470	619.201	-382.970	1512.900	563.709	-99.660	1511.795	536.139	-386.063	1418.022	205.606	-6.485	1407.089	211.475	-479.934	1406.728	172.310	-79.593	1386.296	173.940	-410.903
	95	0.79167	1479.075	905.883	-249.307	1466.576	880.696	-179.748	1474.499	883.060	-329.950	1443.333	470.248	-136.577	1434.314	460.491	-354.896	1406.998	69.319	-130.354	1383.832	71.222	-363.371	1565.801	961.160	-248.576	1559.531	959.290	-129.707	1572.072	963.030	-367.445	1378.991	1017.775	-224.742	1388.756	1015.608	-310.025	1452.462	475.993	-77.046	1442.496	463.218	-414.272	1424.814	478.487	-185.018	1429.722	466.498	-303.063	1391.512	71.328	-91.365	1365.121	74.440	-399.710	1415.913	82.837	-158.037	1390.604	83.246	-338.310	1342.736	42.590	-143.914	1317.616	42.919	-352.244	1483.675	1369.725	-238.399	1565.920	1206.182	-248.382	1371.711	1435.971	-242.622	1493.151	1358.506	-185.823	1508.773	1365.128	-292.761	1525.718	39.468	-99.169	1500.686	41.228	-401.711	1506.755	591.371	-12.908	1596.917	553.324	-342.262	1522.694	652.500	-84.223	1537.589	618.971	-382.989	1512.809	563.587	-99.707	1511.927	536.005	-386.291	1418.000	205.602	-6.523	1407.080	211.470	-479.936	1406.728	172.310	-79.593	1386.316	173.915	-410.897
	96	0.80000	1479.183	905.977	-249.469	1466.695	880.718	-179.831	1474.646	883.023	-330.032	1443.348	470.235	-136.610	1434.380	460.510	-354.917	1406.990	69.361	-130.363	1383.855	71.199	-363.376	1565.922	961.169	-248.672	1559.630	959.345	-129.805	1572.214	962.994	-367.539	1379.030	1017.768	-224.769	1388.684	1015.637	-310.016	1452.477	475.984	-77.080	1442.544	463.229	-414.296	1424.493	478.437	-184.806	1429.743	465.775	-304.183	1391.504	71.373	-91.374	1365.134	74.418	-399.710	1415.924	82.900	-157.987	1390.594	83.116	-338.313	1342.732	42.586	-143.904	1317.626	42.924	-352.245	1483.691	1369.702	-238.407	1565.923	1206.153	-248.382	1371.712	1435.972	-242.678	1493.186	1358.495	-185.829	1508.767	1365.091	-292.780	1525.726	39.494	-99.152	1500.688	41.222	-401.705	1506.863	591.346	-12.957	1596.967	553.289	-342.211	1522.609	652.497	-84.273	1537.649	618.826	-383.024	1512.692	563.534	-99.732	1512.190	535.736	-386.747	1417.970	205.596	-6.571	1407.065	211.471	-479.942	1406.695	172.279	-79.639	1386.470	173.859	-410.869
	97	0.80833	1479.525	906.267	-249.647	1466.835	880.752	-179.898	1474.805	882.991	-330.099	1443.366	470.227	-136.659	1434.428	460.528	-354.924	1406.962	69.419	-130.356	1383.888	71.174	-363.378	1566.047	961.201	-248.763	1559.741	959.430	-129.920	1572.353	962.972	-367.605	1379.076	1017.754	-224.812	1388.605	1015.661	-310.023	1452.495	475.976	-77.128	1442.578	463.238	-414.306	1424.563	478.343	-184.775	1429.784	465.418	-304.696	1391.475	71.439	-91.367	1365.159	74.393	-399.708	1415.929	82.925	-157.959	1390.411	82.950	-338.281	1342.724	42.588	-143.897	1317.639	42.931	-352.245	1483.693	1369.723	-238.470	1566.041	1206.236	-248.501	1371.673	1435.910	-242.700	1493.183	1358.499	-185.847	1508.785	1365.154	-292.891	1525.728	39.512	-99.151	1500.685	41.221	-401.702	1506.941	591.333	-12.985	1597.010	553.258	-342.161	1522.522	652.553	-84.399	1537.623	618.747	-383.105	1512.731	563.619	-99.819	1512.321	535.602	-386.975	1417.937	205.588	-6.623	1407.047	211.478	-479.950	1406.882	172.229	-79.714	1386.615	173.861	-410.830
	98	0.81667	1479.692	906.397	-249.858	1466.978	880.791	-179.950	1474.966	882.962	-330.152	1443.384	470.228	-136.715	1434.458	460.542	-354.926	1406.918	69.482	-130.334	1383.926	71.151	-363.377	1566.167	961.245	-248.841	1559.849	959.528	-130.042	1572.485	962.963	-367.640	1379.124	1017.734	-224.873	1388.523	1015.676	-310.048	1452.515	475.972	-77.184	1442.600	463.244	-414.310	1424.963	478.366	-184.966	1429.738	465.879	-304.055	1391.433	71.512	-91.346	1365.193	74.371	-399.705	1415.878	82.913	-157.986	1390.179	82.894	-338.251	1342.711	42.596	-143.895	1317.653	42.936	-352.243	1483.671	1369.756	-238.524	1566.283	1206.405	-248.609	1371.558	1435.768	-242.819	1493.185	1358.533	-185.892	1508.765	1365.242	-292.963	1525.725	39.522	-99.159	1500.680	41.225	-401.702	1506.984	591.331	-12.996	1597.045	553.232	-342.118	1522.597	652.720	-84.515	1537.561	618.772	-383.220	1512.934	563.765	-99.931	1512.190	535.736	-386.747	1417.906	205.582	-6.672	1407.029	211.490	-479.962	1406.972	172.164	-79.813	1386.586	173.944	-410.826
	99	0.82500	1479.703	906.399	-250.099	1467.116	880.828	-179.996	1475.127	882.938	-330.197	1443.400	470.234	-136.774	1434.477	460.554	-354.930	1406.867	69.538	-130.300	1383.967	71.138	-363.375	1566.281	961.296	-248.906	1559.948	959.628	-130.159	1572.615	962.965	-367.652	1379.170	1017.724	-224.944	1388.422	1015.681	-310.099	1452.536	475.973	-77.244	1442.614	463.248	-414.314	1425.275	478.390	-185.001	1429.617	466.776	-302.867	1391.386	71.580	-91.311	1365.231	74.356	-399.702	1415.786	82.916	-158.012	1390.157	83.040	-338.234	1342.690	42.612	-143.891	1317.668	42.945	-352.238	1483.621	1369.770	-238.542	1566.418	1206.506	-248.510	1371.406	1435.685	-243.008	1493.160	1358.602	-185.941	1508.708	1365.241	-292.943	1525.725	39.538	-99.159	1500.672	41.233	-401.706	1506.996	591.342	-12.999	1597.066	553.211	-342.084	1522.672	652.872	-84.572	1537.533	618.864	-383.316	1513.092	563.929	-99.928	1511.927	536.005	-386.291	1417.884	205.576	-6.723	1407.016	211.502	-479.977	1406.880	172.151	-79.825	1386.616	174.012	-410.849
